<mxfile host="app.diagrams.net" modified="2022-06-02T07:24:30.517Z" agent="5.0 (Windows)" etag="MLL9W4BQRvq-X5bj3DIk" version="17.5.0" type="github">
  <diagram id="0Nw_HhVGQ8XgyaPAKGmE" name="Page-1">
    <mxGraphModel dx="981" dy="538" grid="1" gridSize="10" guides="1" tooltips="1" connect="1" arrows="1" fold="1" page="1" pageScale="1" pageWidth="827" pageHeight="583" math="0" shadow="0">
      <root>
        <mxCell id="0" />
        <mxCell id="1" parent="0" />
        <mxCell id="E7z-9QyXQ32_49B5jIe_-3" style="edgeStyle=orthogonalEdgeStyle;rounded=0;orthogonalLoop=1;jettySize=auto;html=1;" edge="1" parent="1" source="E7z-9QyXQ32_49B5jIe_-1">
          <mxGeometry relative="1" as="geometry">
            <mxPoint x="580" y="125" as="targetPoint" />
          </mxGeometry>
        </mxCell>
        <mxCell id="E7z-9QyXQ32_49B5jIe_-5" style="edgeStyle=orthogonalEdgeStyle;rounded=0;orthogonalLoop=1;jettySize=auto;html=1;startArrow=classic;startFill=1;endArrow=none;endFill=0;" edge="1" parent="1" source="E7z-9QyXQ32_49B5jIe_-1">
          <mxGeometry relative="1" as="geometry">
            <mxPoint x="280" y="125" as="targetPoint" />
          </mxGeometry>
        </mxCell>
        <mxCell id="E7z-9QyXQ32_49B5jIe_-7" style="edgeStyle=orthogonalEdgeStyle;rounded=0;orthogonalLoop=1;jettySize=auto;html=1;startArrow=classic;startFill=1;endArrow=none;endFill=0;" edge="1" parent="1" source="E7z-9QyXQ32_49B5jIe_-1">
          <mxGeometry relative="1" as="geometry">
            <mxPoint x="436" y="210" as="targetPoint" />
          </mxGeometry>
        </mxCell>
        <mxCell id="E7z-9QyXQ32_49B5jIe_-1" value="" style="shape=orEllipse;perimeter=ellipsePerimeter;whiteSpace=wrap;html=1;backgroundOutline=1;" vertex="1" parent="1">
          <mxGeometry x="414" y="105" width="44" height="40" as="geometry" />
        </mxCell>
        <mxCell id="E7z-9QyXQ32_49B5jIe_-4" value="&lt;div&gt;m&#39;&lt;/div&gt;" style="text;html=1;align=center;verticalAlign=middle;resizable=0;points=[];autosize=1;strokeColor=none;fillColor=none;" vertex="1" parent="1">
          <mxGeometry x="580" y="115" width="30" height="20" as="geometry" />
        </mxCell>
        <mxCell id="E7z-9QyXQ32_49B5jIe_-6" value="m" style="text;html=1;align=center;verticalAlign=middle;resizable=0;points=[];autosize=1;strokeColor=none;fillColor=none;" vertex="1" parent="1">
          <mxGeometry x="250" y="115" width="30" height="20" as="geometry" />
        </mxCell>
        <mxCell id="E7z-9QyXQ32_49B5jIe_-10" style="edgeStyle=orthogonalEdgeStyle;rounded=0;orthogonalLoop=1;jettySize=auto;html=1;startArrow=classic;startFill=1;endArrow=none;endFill=0;" edge="1" parent="1" source="E7z-9QyXQ32_49B5jIe_-8">
          <mxGeometry relative="1" as="geometry">
            <mxPoint x="436" y="340" as="targetPoint" />
          </mxGeometry>
        </mxCell>
        <mxCell id="E7z-9QyXQ32_49B5jIe_-12" style="edgeStyle=orthogonalEdgeStyle;rounded=0;orthogonalLoop=1;jettySize=auto;html=1;startArrow=classic;startFill=1;endArrow=none;endFill=0;" edge="1" parent="1" source="E7z-9QyXQ32_49B5jIe_-8">
          <mxGeometry relative="1" as="geometry">
            <mxPoint x="550" y="245.0000000000001" as="targetPoint" />
          </mxGeometry>
        </mxCell>
        <mxCell id="E7z-9QyXQ32_49B5jIe_-13" style="edgeStyle=orthogonalEdgeStyle;rounded=0;orthogonalLoop=1;jettySize=auto;html=1;exitX=1;exitY=0.25;exitDx=0;exitDy=0;startArrow=classic;startFill=1;endArrow=none;endFill=0;" edge="1" parent="1" source="E7z-9QyXQ32_49B5jIe_-8">
          <mxGeometry relative="1" as="geometry">
            <mxPoint x="550" y="222" as="targetPoint" />
          </mxGeometry>
        </mxCell>
        <mxCell id="E7z-9QyXQ32_49B5jIe_-8" value="Shake" style="whiteSpace=wrap;html=1;aspect=fixed;" vertex="1" parent="1">
          <mxGeometry x="389" y="198" width="94" height="94" as="geometry" />
        </mxCell>
        <mxCell id="E7z-9QyXQ32_49B5jIe_-9" value="s&#39;" style="text;html=1;align=center;verticalAlign=middle;resizable=0;points=[];autosize=1;strokeColor=none;fillColor=none;" vertex="1" parent="1">
          <mxGeometry x="438" y="160" width="20" height="20" as="geometry" />
        </mxCell>
        <mxCell id="E7z-9QyXQ32_49B5jIe_-11" value="s" style="text;html=1;align=center;verticalAlign=middle;resizable=0;points=[];autosize=1;strokeColor=none;fillColor=none;" vertex="1" parent="1">
          <mxGeometry x="440" y="310" width="20" height="20" as="geometry" />
        </mxCell>
        <mxCell id="E7z-9QyXQ32_49B5jIe_-14" value="l" style="text;html=1;align=center;verticalAlign=middle;resizable=0;points=[];autosize=1;strokeColor=none;fillColor=none;" vertex="1" parent="1">
          <mxGeometry x="550" y="230" width="20" height="20" as="geometry" />
        </mxCell>
        <mxCell id="E7z-9QyXQ32_49B5jIe_-15" value="c" style="text;html=1;align=center;verticalAlign=middle;resizable=0;points=[];autosize=1;strokeColor=none;fillColor=none;" vertex="1" parent="1">
          <mxGeometry x="550" y="210" width="20" height="20" as="geometry" />
        </mxCell>
      </root>
    </mxGraphModel>
  </diagram>
</mxfile>
